<svg width="199" height="57" fill="none" xmlns="http://www.w3.org/2000/svg">
  <g opacity=".2" fill="#000">
    <path d="M0 22.228v4.446h4.253v-4.446H0ZM20.154 7.817c-2.7 0-4.882 1.223-6.25 3h-.149V0h-3.513v26.674h3.513v-9.15c0-3.668 2.293-6.299 5.659-6.299 3.18 0 5.03 2.371 5.03 5.557v9.892h3.513V16.153c0-5.076-3.143-8.336-7.803-8.336ZM46.06 8.336h-8.322V1.852h-3.514v6.484h-3.328v3.408h3.328V22.08c0 2.964 1.665 4.594 4.66 4.594h7.175V23.23h-6.472c-1.184 0-1.85-.667-1.85-1.816v-9.669h8.322V8.336ZM71.158 7.854c-2.81 0-4.956 1.37-6.14 3.557h-.11c-1.073-2.15-3.07-3.557-5.807-3.557-2.44 0-4.29 1.297-5.4 3.112h-.148v-2.63h-3.365v18.338h3.514v-9.41c0-3.445 1.812-5.965 4.549-6.039 2.588-.074 4.105 1.779 4.105 4.557v10.892h3.513v-9.706c0-4.113 2.441-5.743 4.55-5.743 2.551 0 4.068 1.779 4.068 4.557v10.892H78V15.412c0-4.446-2.515-7.558-6.842-7.558ZM82.762 21.932c0 3 1.701 4.742 4.845 4.742h3.476v-3.408h-2.959c-1.183 0-1.849-.667-1.849-1.816V0h-3.513v21.932ZM50.018 34.008h-.148c-1.371-1.842-3.594-3.13-6.558-3.167-5.447-.074-9.337 3.94-9.337 9.612 0 5.709 3.964 9.723 9.3 9.65 3.038-.037 5.224-1.4 6.595-3.352h.148v2.836H53.5v-18.23h-3.483v2.65Zm-6.225 12.706c-3.853 0-6.298-2.799-6.298-6.26 0-3.463 2.445-6.262 6.298-6.262 3.743 0 6.188 2.8 6.188 6.261 0 3.425-2.445 6.261-6.188 6.261ZM76.501 37.986c-.852-4.125-4.52-7.145-9.336-7.145-5.817 0-9.707 4.235-9.707 9.612s3.89 9.65 9.707 9.65c4.816 0 8.484-3.094 9.336-7.256h-3.667c-.741 2.32-2.927 3.904-5.632 3.904-3.78 0-6.225-2.836-6.225-6.298s2.446-6.26 6.225-6.26c2.816 0 4.89 1.656 5.632 3.793H76.5ZM95.319 34.008h-.149c-1.37-1.842-3.594-3.13-6.558-3.167-5.446-.074-9.337 3.94-9.337 9.612 0 5.709 3.965 9.723 9.3 9.65 3.038-.037 5.224-1.4 6.595-3.352h.148v2.836h3.483v-18.23h-3.483v2.65Zm-6.225 12.706c-3.854 0-6.299-2.799-6.299-6.26 0-3.463 2.445-6.262 6.299-6.262 3.742 0 6.187 2.8 6.187 6.261 0 3.425-2.445 6.261-6.187 6.261ZM118.801 34.192h-.148c-1.371-1.952-3.669-3.315-6.596-3.352-5.335-.073-9.299 3.941-9.299 9.65 0 5.672 3.89 9.686 9.337 9.613 2.889-.038 5.187-1.326 6.521-3.168h.185v2.652h3.483V23.069h-3.483v11.123Zm-6.225 12.559c-3.853 0-6.298-2.799-6.298-6.261s2.445-6.261 6.298-6.261c3.743 0 6.188 2.836 6.188 6.26 0 3.463-2.445 6.262-6.188 6.262ZM135.544 30.84c-5.631 0-9.485 4.31-9.485 9.65 0 5.193 3.631 9.613 9.559 9.613 4.298 0 7.744-2.32 8.967-6.188h-3.668c-.815 1.731-2.779 2.836-5.15 2.836-3.335 0-5.706-2.21-5.966-5.046h15.154c.482-6.077-3.334-10.864-9.411-10.864Zm-.074 3.352c2.927 0 5.113 1.805 5.669 4.42h-11.263c.518-2.579 2.704-4.42 5.594-4.42ZM169.926 30.877c-2.816 0-4.965 1.363-6.15 3.536h-.112c-1.074-2.136-3.075-3.536-5.817-3.536-2.445 0-4.297 1.29-5.409 3.094h-.148v-2.615h-3.372v18.23h3.52v-9.354c0-3.425 1.816-5.93 4.558-6.003 2.593-.074 4.112 1.768 4.112 4.53v10.828h3.52v-9.65c0-4.088 2.445-5.708 4.557-5.708 2.557 0 4.076 1.768 4.076 4.53v10.828h3.519V38.39c0-4.419-2.519-7.513-6.854-7.513ZM189.381 46.677l-6.298-15.32h-3.891l8.374 19.96-.037.075c-.593 1.51-1.26 2.062-2.89 2.062h-4.335v3.498h4.335c3.186 0 4.89-1.436 6.076-4.53l8.077-21.066h-3.594l-5.817 15.321Z"/>
  </g>
</svg>
