<svg width="199" height="58" fill="none" xmlns="http://www.w3.org/2000/svg">
  <g clip-path="url(#a)" fill="#000">
    <path d="M0 22.289v4.458h4.253v-4.458H0ZM20.154 7.838c-2.7 0-4.882 1.226-6.25 3.01h-.149V0h-3.513v26.747h3.513V17.57c0-3.678 2.293-6.315 5.659-6.315 3.18 0 5.03 2.377 5.03 5.572v9.919h3.513v-10.55c0-5.09-3.143-8.359-7.803-8.359ZM46.06 8.358h-8.322v-6.5h-3.514v6.5h-3.328v3.418h3.328V22.14c0 2.972 1.665 4.607 4.66 4.607h7.175v-3.455h-6.472c-1.184 0-1.85-.669-1.85-1.82v-9.696h8.322V8.358ZM71.158 7.875c-2.81 0-4.956 1.375-6.14 3.567h-.11c-1.073-2.155-3.07-3.567-5.807-3.567-2.44 0-4.29 1.3-5.4 3.12h-.148V8.359h-3.365v18.389h3.514V17.31c0-3.455 1.812-5.98 4.549-6.055 2.588-.074 4.105 1.783 4.105 4.57v10.92h3.513v-9.732c0-4.124 2.441-5.758 4.55-5.758 2.551 0 4.068 1.783 4.068 4.57v10.92H78V15.455c0-4.458-2.515-7.579-6.842-7.579ZM82.762 21.992c0 3.009 1.701 4.755 4.845 4.755h3.476v-3.418h-2.959c-1.183 0-1.849-.669-1.849-1.82V0h-3.513v21.992ZM50.018 34.1h-.148c-1.371-1.846-3.594-3.139-6.558-3.176-5.447-.073-9.337 3.952-9.337 9.64 0 5.723 3.964 9.749 9.3 9.675 3.038-.037 5.224-1.403 6.595-3.361h.148v2.844H53.5v-18.28h-3.483V34.1Zm-6.225 12.741c-3.853 0-6.298-2.806-6.298-6.278 0-3.471 2.445-6.278 6.298-6.278 3.743 0 6.188 2.807 6.188 6.278 0 3.435-2.445 6.278-6.188 6.278ZM76.501 38.089c-.852-4.136-4.52-7.165-9.336-7.165-5.817 0-9.707 4.247-9.707 9.64 0 5.39 3.89 9.675 9.707 9.675 4.816 0 8.484-3.102 9.336-7.275h-3.667c-.741 2.326-2.927 3.914-5.632 3.914-3.78 0-6.225-2.844-6.225-6.315 0-3.471 2.446-6.278 6.225-6.278 2.816 0 4.89 1.662 5.632 3.804H76.5ZM95.319 34.1h-.149c-1.37-1.846-3.594-3.139-6.558-3.176-5.446-.073-9.337 3.952-9.337 9.64 0 5.723 3.965 9.749 9.3 9.675 3.038-.037 5.224-1.403 6.595-3.361h.148v2.844h3.483v-18.28h-3.483V34.1Zm-6.225 12.741c-3.854 0-6.299-2.806-6.299-6.278 0-3.471 2.445-6.278 6.299-6.278 3.742 0 6.187 2.807 6.187 6.278 0 3.435-2.445 6.278-6.187 6.278ZM118.801 34.285h-.148c-1.371-1.957-3.669-3.324-6.596-3.36-5.335-.075-9.299 3.95-9.299 9.675 0 5.687 3.89 9.713 9.337 9.639 2.889-.037 5.187-1.33 6.521-3.176h.185v2.659h3.483v-26.59h-3.483v11.153Zm-6.225 12.593c-3.853 0-6.298-2.806-6.298-6.278 0-3.471 2.445-6.278 6.298-6.278 3.743 0 6.188 2.843 6.188 6.278 0 3.472-2.445 6.278-6.188 6.278ZM135.544 30.924c-5.631 0-9.485 4.321-9.485 9.676 0 5.207 3.631 9.639 9.559 9.639 4.298 0 7.744-2.327 8.967-6.205h-3.668c-.815 1.736-2.779 2.844-5.15 2.844-3.335 0-5.706-2.216-5.966-5.06h15.154c.482-6.093-3.334-10.894-9.411-10.894Zm-.074 3.361c2.927 0 5.113 1.81 5.669 4.432h-11.263c.518-2.585 2.704-4.432 5.594-4.432ZM169.926 30.961c-2.816 0-4.965 1.367-6.15 3.546h-.112c-1.074-2.142-3.075-3.546-5.817-3.546-2.445 0-4.297 1.293-5.409 3.102h-.148v-2.622h-3.372v18.28h3.52v-9.38c0-3.434 1.816-5.945 4.558-6.019 2.593-.074 4.112 1.773 4.112 4.542v10.858h3.52v-9.676c0-4.1 2.445-5.724 4.557-5.724 2.557 0 4.076 1.773 4.076 4.542v10.858h3.519V38.495c0-4.431-2.519-7.534-6.854-7.534ZM189.381 46.804l-6.298-15.363h-3.891l8.374 20.017-.037.073c-.593 1.514-1.26 2.068-2.89 2.068h-4.335v3.509h4.335c3.186 0 4.89-1.44 6.076-4.543l8.077-21.124h-3.594l-5.817 15.363Z"/>
  </g>
  <defs>
    <clipPath id="a">
      <path fill="#fff" d="M0 0h199v57.155H0z"/>
    </clipPath>
  </defs>
</svg>
