<svg width="58" height="23" fill="none" xmlns="http://www.w3.org/2000/svg"><path fill-rule="evenodd" clip-rule="evenodd" d="M3 0h17c1.65 0 3 1.35 3 3v17c0 1.65-1.35 3-3 3H3c-1.65 0-3-1.35-3-3V3c0-1.65 1.35-3 3-3Zm18 3c0-.542-.458-1-1-1H3c-.542 0-1 .458-1 1v17c0 .542.458 1 1 1h17c.542 0 1-.458 1-1V3Z" fill="#4D4D4D"/><path d="m39.96 8.486-2.703 2.829 7.435 7.783L58 5.166 55.3 2.336 44.692 13.44l-4.733-4.953Z" fill="#4D4D4D"/><path d="M54 20c0 .542-.458 1-1 1H36c-.542 0-1-.458-1-1V3c0-.542.458-1 1-1h16.908L54.493.415A2.96 2.96 0 0 0 53 0H36c-1.65 0-3 1.35-3 3v17c0 1.65 1.35 3 3 3h17c1.65 0 3-1.35 3-3v-9.829l-2 2V20Z" fill="#4D4D4D"/></svg>