<svg width="60" height="25" fill="none" xmlns="http://www.w3.org/2000/svg"><path fill-rule="evenodd" clip-rule="evenodd" d="M35 12.5C35 5.597 40.597 0 47.5 0S60 5.597 60 12.5 54.403 25 47.5 25 35 19.403 35 12.5Zm21 0C56 7.813 52.187 4 47.5 4 42.813 4 39 7.813 39 12.5c0 4.687 3.813 8.5 8.5 8.5 4.687 0 8.5-3.813 8.5-8.5Z" fill="#4D4D4D"/><path d="M47.5 17a4.5 4.5 0 1 0 0-9 4.5 4.5 0 0 0 0 9Z" fill="#4D4D4D"/><path fill-rule="evenodd" clip-rule="evenodd" d="M0 12.5C0 5.597 5.597 0 12.5 0S25 5.597 25 12.5 19.403 25 12.5 25 0 19.403 0 12.5Zm21 0C21 7.813 17.187 4 12.5 4 7.813 4 4 7.813 4 12.5c0 4.687 3.813 8.5 8.5 8.5 4.687 0 8.5-3.813 8.5-8.5Z" fill="#4D4D4D"/></svg>